<svg width="38" height="28" viewBox="0 0 38 28" fill="none" xmlns="http://www.w3.org/2000/svg">
<path fill-rule="evenodd" clip-rule="evenodd" d="M6.98051 7.86555C6.86041 7.94126 6.73843 8.00752 6.61437 8.06493C5.96424 8.36579 5.25712 8.42386 4.46597 8.32801C2.44936 8.08371 1.27271 6.74362 1.48211 5.01509C1.75907 2.72897 3.65448 1.32729 6.06141 1.61887C6.80127 1.7085 7.44254 1.95262 7.91935 2.32347C8.06864 2.43958 8.20181 2.56813 8.31684 2.70824C8.45277 2.87381 8.56335 3.05554 8.64527 3.25203L6.9157 4.29663C6.84665 4.13455 6.76056 3.99079 6.65656 3.86757C6.42883 3.59775 6.11528 3.42644 5.70698 3.37698C4.67544 3.25201 3.8515 3.98199 3.71077 5.14364C3.61845 5.90568 4.08624 6.48097 4.89475 6.57892C5.30376 6.62847 5.71746 6.5397 6.12847 6.25374C6.23108 6.18236 6.33351 6.09868 6.43567 6.0018L7.57768 7.39428C7.5213 7.44841 7.46453 7.49998 7.40736 7.54907C7.30468 7.63723 7.2007 7.71737 7.09528 7.78992C7.05721 7.81611 7.01896 7.84132 6.98051 7.86555ZM8.36795 8.21741C8.31944 8.18345 8.27325 8.1491 8.22948 8.11445L9.27105 6.59989C9.38159 6.68285 9.49338 6.75963 9.60625 6.83041C10.112 7.14754 10.6391 7.34421 11.1707 7.43707C11.2441 7.44989 11.3175 7.46073 11.3911 7.46964C11.9579 7.53831 12.2733 7.42565 12.3015 7.19332C12.3305 6.95387 11.9683 6.80079 11.4942 6.61784L11.4095 6.58522L11.3554 6.56445C10.8636 6.37513 10.2868 6.14502 9.90245 5.75861C9.80031 5.65592 9.71177 5.5422 9.64202 5.41527C9.50697 5.1695 9.44238 4.87423 9.48606 4.51372C9.50577 4.35097 9.53973 4.19624 9.5873 4.05007C9.67067 3.79389 9.79584 3.564 9.95942 3.36331C10.5499 2.63881 11.6408 2.29479 13.0719 2.46816C13.5519 2.52631 14.0008 2.62953 14.3998 2.77207C14.6284 2.85377 14.8407 2.94839 15.033 3.05484C15.1807 3.13664 15.3167 3.22543 15.4392 3.32072L14.4556 4.82344C14.3037 4.70084 14.1387 4.59356 13.9641 4.50175C13.6141 4.31768 13.2254 4.19576 12.8269 4.13705C12.7946 4.1323 12.7623 4.12796 12.7299 4.12404C12.0887 4.04636 11.7468 4.22182 11.7198 4.44486C11.6878 4.70911 12.0984 4.86495 12.6168 5.0575L12.6361 5.06467L12.666 5.0758C13.0417 5.21536 13.4672 5.37605 13.8198 5.61108C14.0966 5.79557 14.3285 6.02585 14.4561 6.32765C14.5468 6.54207 14.5848 6.79258 14.549 7.08841C14.3734 8.53814 12.9913 9.36081 10.9654 9.11539C10.3334 9.03883 9.75001 8.88443 9.25651 8.68606C9.00091 8.58332 8.76943 8.46877 8.56784 8.34714C8.50651 8.31014 8.44795 8.27248 8.39232 8.23429L8.36795 8.21741ZM8.11937 6.20953L8.47932 5.68612C8.37597 5.42319 8.31422 5.13561 8.30391 4.8252L7.42124 5.35829L8.11937 6.20953ZM6.20213 0.457229C7.48235 0.612321 8.72354 1.18215 9.42408 2.23736C9.59513 2.08606 9.78391 1.95011 9.98922 1.83113C10.8911 1.30847 12.0194 1.16196 13.2127 1.30652C14.3099 1.43944 15.3762 1.78941 16.1575 2.39702L16.675 2.79945C16.7435 2.75314 16.8141 2.70888 16.8868 2.66674C17.7887 2.14409 18.917 1.99757 20.1103 2.14213C21.2075 2.27505 22.2738 2.62502 23.0551 3.23263L23.9065 3.89473L22.2712 6.39325C22.55 6.85661 22.6865 7.41853 22.6082 8.06475C22.4749 9.16585 21.8633 10.0531 20.9311 10.5881C20.0316 11.1043 18.9073 11.2562 17.7223 11.1126C16.407 10.9533 15.1882 10.491 14.4007 9.86745L14.1597 9.67663C14.1183 9.70264 14.0762 9.72793 14.0334 9.75248C13.134 10.2687 12.0097 10.4206 10.8246 10.277C9.50934 10.1177 8.29061 9.65537 7.50311 9.03184L7.42005 8.96608C6.45271 9.51305 5.40737 9.62075 4.32525 9.48966C3.09438 9.34055 2.01297 8.84237 1.267 8.00809C0.509525 7.16095 0.177686 6.05299 0.320471 4.87436C0.495331 3.43097 1.19409 2.21218 2.27635 1.4102C3.35361 0.611923 4.73716 0.279754 6.20213 0.457229ZM15.4655 9.18275C15.3408 9.10753 15.2275 9.02959 15.1271 8.95006L16.1687 7.4355C16.2792 7.51846 16.391 7.59524 16.5039 7.66602C17.0096 7.98315 17.5367 8.17983 18.0683 8.27269C18.1417 8.2855 18.2152 8.29634 18.2887 8.30525C18.8556 8.37392 19.171 8.26126 19.1991 8.02893C19.2281 7.78949 18.866 7.63641 18.3919 7.45345L18.3071 7.42083L18.2531 7.40006C17.7612 7.21075 17.1844 6.98063 16.8001 6.59422C16.6979 6.49154 16.6094 6.37781 16.5396 6.25089C16.4046 6.00512 16.34 5.70984 16.3837 5.34933C16.5627 3.87172 17.9158 3.05497 19.9695 3.30378C20.4495 3.36192 20.8985 3.46515 21.2974 3.60769C21.5261 3.68939 21.7383 3.784 21.9306 3.89045C22.0783 3.97226 22.2143 4.06104 22.3368 4.15633L21.3532 5.65906C21.2014 5.53645 21.0363 5.42917 20.8617 5.33736C20.5117 5.15329 20.1231 5.03137 19.7245 4.97267C19.6922 4.96792 19.6599 4.96358 19.6275 4.95965C18.9863 4.88197 18.6444 5.05744 18.6174 5.28047C18.5854 5.54472 18.996 5.70056 19.5144 5.89312L19.5337 5.90029L19.5637 5.91141C19.9393 6.05097 20.3648 6.21167 20.7174 6.44669C20.9942 6.63118 21.2261 6.86146 21.3537 7.16326C21.4444 7.37768 21.4824 7.62819 21.4466 7.92403C21.271 9.37376 19.8889 10.1964 17.863 9.951C17.2311 9.87444 16.6476 9.72005 16.1541 9.52167C15.8985 9.41893 15.6671 9.30439 15.4655 9.18275ZM5.83918 4.75523L5.89974 4.89739L5.63047 5.15276C5.47404 5.30111 5.35357 5.36435 5.2736 5.39275C5.19712 5.4199 5.12281 5.42785 5.03548 5.41727C4.95554 5.40759 4.90908 5.3892 4.8873 5.37809C4.88062 5.37468 4.87587 5.37179 4.87266 5.36962C4.87048 5.35936 4.86661 5.33229 4.87242 5.28436C4.91373 4.94329 5.04344 4.7487 5.15045 4.65396C5.24755 4.568 5.37623 4.5156 5.56625 4.53862C5.67518 4.55182 5.71655 4.58046 5.73199 4.5925C5.7506 4.60702 5.79305 4.64696 5.83918 4.75523ZM25.3538 15.4631L23.7927 13.4604L5.71211 18.5471L6.40839 27.5895L14.9236 25.1939L14.5447 20.2729L15.405 20.0309L15.7876 24.9508L20.2113 23.7063L19.8288 18.7863L20.6999 18.5413L21.0788 23.4622L25.3137 22.2708L25.2675 21.6712L26.6691 21.2768L26.7184 21.8756L37.7121 18.7827L37.4033 14.6589L34.5517 15.4611L34.1692 10.5412L26.4995 12.6989L25.3538 15.4631ZM9.25726 21.177L9.0791 18.8154L6.95244 19.4137L7.46549 26.0766L9.59215 25.4783L9.40666 23.0215L11.3711 22.4688L11.5566 24.9256L13.6833 24.3273L13.1702 17.6645L11.0436 18.2628L11.2217 20.6243L9.25726 21.177ZM16.8436 23.4382L16.4611 18.5182L14.6138 19.0379L14.4833 17.2951L20.3045 15.6573L20.4351 17.4002L18.5877 17.9199L18.9703 22.8399L16.8436 23.4382ZM25.4545 20.403L23.8425 18.4059L24.0733 21.4042L22.1359 21.9493L21.6229 15.2864L23.353 14.7997L25.6658 17.7665L27.363 13.6715L29.1743 13.162L29.7054 19.8197L27.7679 20.3648L27.5179 17.333L26.3917 20.1393L25.4545 20.403ZM33.1131 12.0538L33.4957 16.9738L36.3432 16.1727L36.4738 17.9155L31.4995 19.315L30.9865 12.6521L33.1131 12.0538Z" fill="white"/>
</svg>
