<svg width="57" height="60" viewBox="0 0 57 60" fill="none" xmlns="http://www.w3.org/2000/svg">
<g id="IMG">
<g id="&#208;&#161;&#208;&#187;&#208;&#190;&#208;&#185;_3">
<g id="Group">
<path id="Vector" d="M27.5648 55.352L1.94943 43.3062L11.4276 21.5557L37.3764 33.1797L27.5648 55.352Z" fill="#FF6C00" stroke="#151E34" stroke-width="0.545283" stroke-miterlimit="10"/>
<path id="Vector_2" d="M37.3586 33.1484L45.6179 39.1878L37.526 57.47L27.5427 55.3256L37.3586 33.1484Z" fill="#D2691C" stroke="#151E34" stroke-width="0.545283" stroke-miterlimit="10"/>
<path id="Vector_3" d="M17.1952 50.4609L11.8421 47.9416L21.4901 26.0498L26.8885 28.4669L17.1952 50.4609Z" fill="white" stroke="#151E34" stroke-width="0.545283" stroke-miterlimit="10"/>
<path id="Vector_4" d="M34.6532 56.8213L31.6543 56.1868L40.7603 35.6255L43.2411 37.4301L34.6532 56.8213Z" fill="white" stroke="#151E34" stroke-width="0.545283" stroke-miterlimit="10"/>
<path id="Vector_5" d="M39.4092 28.8719L11.7555 16.4932L9.82889 20.8437L37.4826 33.2225L39.4092 28.8719Z" fill="#FF6C00" stroke="#151E34" stroke-width="0.545283" stroke-miterlimit="10"/>
<path id="Vector_6" d="M46.6741 39.9203L37.4476 33.1097L39.4014 28.8604L48.5057 36.1464L46.6741 39.9203Z" fill="#D2691C" stroke="#151E34" stroke-width="0.545283" stroke-miterlimit="10"/>
<path id="Vector_7" d="M29.669 24.2943L24.5355 21.9946L22.532 26.5222L27.6655 28.8219L29.669 24.2943Z" fill="white" stroke="#151E34" stroke-width="0.545283" stroke-miterlimit="10"/>
<path id="Vector_8" d="M44.2642 38.1345L41.8674 36.3807L43.7592 32.3716L46.0149 34.2118L44.2642 38.1345Z" fill="white" stroke="#151E34" stroke-width="0.545283" stroke-miterlimit="10"/>
<g id="Group_2">
<path id="Vector_9" d="M22.324 9.17123C19.7948 9.11239 18.3928 10.1569 18.0445 13.1013C17.9655 14.8065 19.9763 20.0861 24.2732 21.7256C21.7012 17.5816 23.163 12.2532 25.7319 13.1185C26.0506 10.1745 22.324 9.17123 22.324 9.17123Z" fill="#FFE3CE" stroke="#151E34" stroke-width="0.545283" stroke-miterlimit="10"/>
<path id="Vector_10" d="M18.1284 13.9658C18.515 11.9636 19.9803 9.8465 21.8591 10.5115C23.7379 11.1765 25.8908 12.848 27.268 17.6662C28.1748 20.8597 27.2327 23.9182 28.9085 23.8804C31.5281 16.9644 31.4908 13.0999 28.7204 8.90838C27.7736 7.46448 25.6794 6.3903 22.6964 6.79415C21.8935 6.88312 21.3162 7.05957 20.5634 7.33411C16.8684 8.68342 18.1284 13.9658 18.1284 13.9658Z" fill="white" stroke="#151E34" stroke-width="0.545283" stroke-miterlimit="10"/>
<path id="Vector_11" d="M43.7843 17.4333C42.7401 20.8555 38.5869 21.5111 34.4306 22.8045C32.2487 23.4864 30.8615 24.497 30.8615 24.497C30.4155 23.7124 30.9474 23.4066 31.4031 22.8083C36.5318 19.8151 38.3672 16.829 37.576 15.5633C38.8476 13.984 44.4147 13.4858 43.7843 17.4333Z" fill="#FFE3CE" stroke="#151E34" stroke-width="0.545283" stroke-miterlimit="10"/>
<path id="Vector_12" d="M28.8601 23.6177C30.777 15.5677 32.5703 12.0459 34.9468 10.2271C37.5068 8.25922 39.2418 8.28844 41.3717 10.7116C44.7616 14.5696 44.4832 15.9955 43.7862 17.4378C43.7523 15.4232 41.9563 14.7682 40.541 15.0455C39.1257 15.3227 35.7234 16.8043 33.4023 20.1577C32.6241 21.3188 31.1604 23.4649 30.8583 24.5129C30.2464 24.402 28.7707 23.9857 28.8601 23.6177Z" fill="white" stroke="#151E34" stroke-width="0.545283" stroke-miterlimit="10"/>
<path id="Vector_13" d="M43.5256 23.8023C43.5178 25.8101 41.7445 28.8889 35.351 26.7859C37.6227 29.679 46.1991 32.1892 47.5788 29.9669C49.3915 27.1639 48.0173 25.6921 46.429 24.505C44.8286 23.3123 43.5256 23.8023 43.5256 23.8023Z" fill="#FFE3CE" stroke="#151E34" stroke-width="0.545283" stroke-miterlimit="10"/>
<path id="Vector_14" d="M30.8987 24.5107C36.0725 21.0115 43.6169 18.1258 47.1738 19.7736C49.0848 20.6297 49.3364 28.6524 47.5734 29.9828C48.5278 27.4611 47.3184 25.9815 45.0466 25.0453C42.7697 24.1205 36.2429 25.967 33.5396 25.7073C31.3522 25.2439 30.8987 24.5107 30.8987 24.5107Z" fill="white" stroke="#151E34" stroke-width="0.545283" stroke-miterlimit="10"/>
<path id="Vector_15" d="M28.041 23.531C26.8323 22.2146 23.5706 20.495 21.667 20.7161C19.529 20.7371 12.1726 23.3278 9.62612 25.5991C13.5256 23.6212 18.2716 27.7595 16.3985 32.0591C19.5247 28.2122 27.6136 23.7337 28.041 23.531Z" fill="white" stroke="#151E34" stroke-width="0.545283" stroke-miterlimit="10"/>
<path id="Vector_16" d="M30.19 24.3694C33.2726 28.688 34.1248 33.3673 33.5947 37.3866C32.8378 42.5826 29.4992 44.4188 28.5071 45.5655C38.9095 40.3117 35.653 48.7669 35.653 48.7669C40.2021 44.7259 41.8648 39.2421 40.0883 34.1623C38.3118 29.0824 36.4133 26.9671 35.3143 25.9988C34.2081 25.0136 31.2293 24.2774 30.19 24.3694Z" fill="white" stroke="#151E34" stroke-width="0.545283" stroke-miterlimit="10"/>
</g>
</g>
</g>
</g>
</svg>
